<svg width="521.407837" height="176.099976" viewBox="0 0 521.408 176.1" fill="none" xmlns="http://www.w3.org/2000/svg" xmlns:xlink="http://www.w3.org/1999/xlink">
	<desc>
			Created with Pixso.
	</desc>
	<defs/>
	<path id="Find the best talent" d="M254.931 176.1C248.665 176.1 243.698 174.367 240.031 170.9C236.365 167.367 234.565 162.733 234.631 157L235.031 136.9L226.631 136.9L226.631 124.2L235.231 124.2L235.331 113.8L250.531 113.8L250.431 124.2L266.331 124.2L266.331 136.9L250.231 136.9L249.931 155.3C249.931 157.7 250.565 159.567 251.831 160.9C253.098 162.233 254.998 162.9 257.531 162.9C258.998 162.9 260.398 162.733 261.731 162.4C263.131 162 264.565 161.267 266.031 160.2L270.431 171.9C267.031 174.7 261.865 176.1 254.931 176.1ZM323.828 124.4L323.828 175.1L308.428 175.1L308.928 167.5C305.261 173.233 299.828 176.1 292.628 176.1C288.095 176.1 284.228 175.067 281.028 173C277.828 170.933 275.395 168.067 273.728 164.4C272.061 160.733 271.228 156.533 271.228 151.8C271.228 146.133 272.395 141.167 274.728 136.9C277.061 132.633 280.195 129.333 284.128 127C288.061 124.6 292.461 123.4 297.328 123.4C300.528 123.4 303.361 124.067 305.828 125.4C308.295 126.667 310.195 128.367 311.528 130.5L312.828 124.4L323.828 124.4ZM298.828 136.7C295.161 136.7 292.261 138.067 290.128 140.8C288.061 143.533 287.028 147.033 287.028 151.3C287.028 154.967 287.828 157.8 289.428 159.8C291.095 161.8 293.328 162.8 296.128 162.8C299.528 162.8 302.428 161.4 304.828 158.6C307.295 155.8 308.528 152.133 308.528 147.6C308.528 144.2 307.661 141.533 305.928 139.6C304.195 137.667 301.828 136.7 298.828 136.7ZM351.645 176.1C346.511 176.1 342.544 174.7 339.745 171.9C337.011 169.033 335.645 164.9 335.645 159.5L335.645 101.1L350.945 101.1L350.945 158.4C350.945 161.467 352.378 163 355.245 163C356.778 163 358.078 162.633 359.145 161.9L362.845 172.8C361.711 173.733 360.145 174.5 358.145 175.1C356.145 175.767 353.978 176.1 351.645 176.1ZM391.116 176.1C385.449 176.1 380.549 175.067 376.416 173C372.282 170.867 369.082 167.9 366.816 164.1C364.549 160.233 363.416 155.667 363.416 150.4C363.416 145.067 364.549 140.367 366.816 136.3C369.149 132.233 372.249 129.067 376.116 126.8C380.049 124.533 384.482 123.4 389.416 123.4C395.016 123.4 399.582 124.667 403.116 127.2C406.649 129.733 409.082 133.333 410.416 138C411.816 142.6 412.116 147.967 411.316 154.1L379.016 154.1C379.416 156.633 380.749 158.767 383.016 160.5C385.282 162.167 388.382 163 392.316 163C394.116 163 396.016 162.633 398.016 161.9C400.016 161.1 401.716 159.933 403.116 158.4L411.616 167.4C409.416 170.067 406.682 172.2 403.416 173.8C400.216 175.333 396.116 176.1 391.116 176.1ZM389.716 134.5C387.049 134.5 384.782 135.3 382.916 136.9C381.116 138.5 379.916 140.733 379.316 143.6L398.416 143.6C398.482 140.467 397.716 138.167 396.116 136.7C394.582 135.233 392.449 134.5 389.716 134.5ZM420.703 175.1L420.703 124.2L435.903 124.2L435.203 135.1C437.27 131.367 439.903 128.5 443.103 126.5C446.37 124.433 450.003 123.4 454.003 123.4C460.07 123.4 464.603 125.467 467.603 129.6C470.603 133.667 472.07 139.533 472.003 147.2L471.803 175.1L456.503 175.1L456.703 148.3C456.77 144.833 456.236 142.2 455.103 140.4C454.036 138.533 452.303 137.6 449.903 137.6C447.903 137.6 446.07 138.2 444.403 139.4C442.736 140.533 441.27 142.5 440.003 145.3C438.803 148.1 437.836 151.933 437.103 156.8C436.37 161.667 435.97 167.767 435.903 175.1L420.703 175.1ZM505.908 176.1C499.641 176.1 494.674 174.367 491.008 170.9C487.341 167.367 485.541 162.733 485.608 157L486.008 136.9L477.608 136.9L477.608 124.2L486.208 124.2L486.308 113.8L501.508 113.8L501.408 124.2L517.308 124.2L517.308 136.9L501.208 136.9L500.908 155.3C500.908 157.7 501.541 159.567 502.808 160.9C504.074 162.233 505.974 162.9 508.508 162.9C509.974 162.9 511.374 162.733 512.708 162.4C514.108 162 515.541 161.267 517.008 160.2L521.408 171.9C518.008 174.7 512.841 176.1 505.908 176.1Z" fill="#F67E7E" fill-opacity="1.000000" fill-rule="evenodd"/>
	<path id="Find the best talent" d="M47.1 18.2L16.8 18.2L16.8 33.3L45 33.3L45 47.3L16.8 47.3L16.8 75.1L0.799976 75.1L0.799976 4.09998L47.1 4.09998L47.1 18.2ZM68.0343 24.2L68.0343 75.1L52.7344 75.1L52.7344 24.2L68.0343 24.2ZM60.3344 18.2C57.401 18.2 55.0677 17.3 53.3344 15.5C51.601 13.7 50.7344 11.5666 50.7344 9.09998C50.7344 6.63331 51.5677 4.49997 53.2344 2.69997C54.9677 0.899971 57.3344 -3.05176e-05 60.3344 -3.05176e-05C63.2677 -3.05176e-05 65.601 0.899971 67.3344 2.69997C69.0677 4.49997 69.9343 6.63331 69.9343 9.09998C69.9343 11.5666 69.0677 13.7 67.3344 15.5C65.601 17.3 63.2677 18.2 60.3344 18.2ZM79.6875 75.1L79.6875 24.2L94.8875 24.2L94.1875 35.1C96.2541 31.3666 98.8875 28.5 102.087 26.5C105.354 24.4333 108.987 23.4 112.987 23.4C119.054 23.4 123.587 25.4666 126.587 29.6C129.587 33.6666 131.054 39.5333 130.987 47.2L130.787 75.1L115.487 75.1L115.687 48.3C115.754 44.8333 115.221 42.2 114.087 40.4C113.021 38.5333 111.287 37.6 108.887 37.6C106.887 37.6 105.054 38.2 103.387 39.4C101.721 40.5333 100.254 42.5 98.9875 45.3C97.7875 48.1 96.8208 51.9333 96.0875 56.8C95.3541 61.6666 94.9541 67.7666 94.8875 75.1L79.6875 75.1ZM191.992 1.09998L191.992 75.1L176.592 75.1L177.092 67.6C173.426 73.2666 167.992 76.1 160.792 76.1C156.259 76.1 152.392 75.0666 149.192 73C145.992 70.9333 143.559 68.0666 141.892 64.4C140.225 60.7333 139.392 56.5333 139.392 51.8C139.392 46.1333 140.559 41.1666 142.892 36.9C145.225 32.6333 148.359 29.3333 152.292 27C156.225 24.6 160.626 23.4 165.492 23.4C167.759 23.4 169.859 23.7333 171.792 24.4C173.725 25.0666 175.392 26 176.792 27.2L176.692 24.2L176.692 1.09998L191.992 1.09998ZM166.992 36.7C163.326 36.7 160.425 38.0666 158.292 40.8C156.225 43.5333 155.192 47.0333 155.192 51.3C155.192 54.9666 155.992 57.8 157.592 59.8C159.259 61.8 161.492 62.8 164.292 62.8C167.692 62.8 170.592 61.4 172.992 58.6C175.459 55.8 176.692 52.1333 176.692 47.6C176.692 44.2 175.826 41.5333 174.092 39.6C172.359 37.6666 169.992 36.7 166.992 36.7ZM251.904 76.1C245.637 76.1 240.671 74.3666 237.004 70.9C233.337 67.3666 231.537 62.7333 231.604 57L232.004 36.9L223.604 36.9L223.604 24.2L232.204 24.2L232.304 13.8L247.504 13.8L247.404 24.2L263.304 24.2L263.304 36.9L247.204 36.9L246.904 55.3C246.904 57.7 247.537 59.5666 248.804 60.9C250.071 62.2333 251.971 62.9 254.504 62.9C255.971 62.9 257.371 62.7333 258.704 62.4C260.104 62 261.537 61.2666 263.004 60.2L267.404 71.9C264.004 74.7 258.837 76.1 251.904 76.1ZM271.777 75.1L271.777 1.09998L287.077 1.09998L287.177 24.2L286.377 34.9C288.444 31.2333 291.077 28.4 294.277 26.4C297.544 24.4 301.144 23.4 305.077 23.4C311.144 23.4 315.677 25.4666 318.677 29.6C321.677 33.6666 323.144 39.5333 323.077 47.2L322.877 75.1L307.577 75.1L307.777 48.3C307.844 44.8333 307.311 42.2 306.177 40.4C305.111 38.5333 303.377 37.6 300.977 37.6C298.977 37.6 297.144 38.2 295.477 39.4C293.811 40.5333 292.344 42.5 291.077 45.3C289.877 48.1 288.911 51.9333 288.177 56.8C287.444 61.6666 287.044 67.7666 286.977 75.1L271.777 75.1ZM359.182 76.1C353.515 76.1 348.615 75.0666 344.482 73C340.349 70.8666 337.149 67.9 334.882 64.1C332.615 60.2333 331.482 55.6666 331.482 50.4C331.482 45.0666 332.615 40.3666 334.882 36.3C337.215 32.2333 340.315 29.0666 344.182 26.8C348.115 24.5333 352.549 23.4 357.482 23.4C363.082 23.4 367.649 24.6666 371.182 27.2C374.715 29.7333 377.149 33.3333 378.482 38C379.882 42.6 380.182 47.9666 379.382 54.1L347.082 54.1C347.482 56.6333 348.815 58.7666 351.082 60.5C353.349 62.1666 356.449 63 360.382 63C362.182 63 364.082 62.6333 366.082 61.9C368.082 61.1 369.782 59.9333 371.182 58.4L379.682 67.4C377.482 70.0666 374.749 72.2 371.482 73.8C368.282 75.3333 364.182 76.1 359.182 76.1ZM357.782 34.5C355.115 34.5 352.849 35.3 350.982 36.9C349.182 38.5 347.982 40.7333 347.382 43.6L366.482 43.6C366.549 40.4666 365.782 38.1666 364.182 36.7C362.649 35.2333 360.515 34.5 357.782 34.5ZM-2.38419e-05 175.1L-2.38419e-05 101.1L15.3 101.1L15.3 124.2L14.8 132C18.4666 126.267 23.9333 123.4 31.2 123.4C35.7333 123.4 39.6 124.433 42.8 126.5C46 128.567 48.4333 131.433 50.1 135.1C51.7666 138.767 52.6 142.967 52.6 147.7C52.6 153.367 51.4333 158.333 49.1 162.6C46.7666 166.867 43.6333 170.2 39.7 172.6C35.7666 174.933 31.3666 176.1 26.5 176.1C23.2333 176.1 20.3666 175.467 17.9 174.2C15.5 172.867 13.6333 171.133 12.3 169L10.9 175.1L-2.38419e-05 175.1ZM24.9 162.8C28.5666 162.8 31.4666 161.433 33.6 158.7C35.7333 155.9 36.8 152.367 36.8 148.1C36.8 144.5 35.9666 141.7 34.3 139.7C32.7 137.7 30.5 136.7 27.7 136.7C24.3 136.7 21.3666 138.1 18.9 140.9C16.5 143.7 15.3 147.367 15.3 151.9C15.3 155.233 16.1666 157.9 17.9 159.9C19.6333 161.833 21.9666 162.8 24.9 162.8ZM86.9164 176.1C81.2497 176.1 76.3497 175.067 72.2164 173C68.083 170.867 64.883 167.9 62.6164 164.1C60.3497 160.233 59.2164 155.667 59.2164 150.4C59.2164 145.067 60.3497 140.367 62.6164 136.3C64.9497 132.233 68.0497 129.067 71.9164 126.8C75.8497 124.533 80.2831 123.4 85.2164 123.4C90.8164 123.4 95.383 124.667 98.9164 127.2C102.45 129.733 104.883 133.333 106.216 138C107.616 142.6 107.916 147.967 107.116 154.1L74.8164 154.1C75.2164 156.633 76.5497 158.767 78.8164 160.5C81.083 162.167 84.1831 163 88.1164 163C89.9164 163 91.8164 162.633 93.8164 161.9C95.8164 161.1 97.5164 159.933 98.9164 158.4L107.416 167.4C105.216 170.067 102.483 172.2 99.2164 173.8C96.0164 175.333 91.9164 176.1 86.9164 176.1ZM85.5164 134.5C82.8497 134.5 80.5831 135.3 78.7164 136.9C76.9164 138.5 75.7164 140.733 75.1164 143.6L94.2164 143.6C94.2831 140.467 93.5164 138.167 91.9164 136.7C90.383 135.233 88.2497 134.5 85.5164 134.5ZM135.204 176.1C127.804 176.1 122.204 174.733 118.404 172C114.604 169.2 112.371 165.533 111.704 161L124.404 157.8C124.804 159.733 125.904 161.3 127.704 162.5C129.504 163.633 131.971 164.2 135.104 164.2C140.104 164.2 142.604 163.033 142.604 160.7C142.604 159.5 141.871 158.6 140.404 158C139.004 157.333 136.704 156.7 133.504 156.1C127.504 155.033 122.837 153.333 119.504 151C116.237 148.667 114.604 145.1 114.604 140.3C114.604 137.033 115.537 134.133 117.404 131.6C119.271 129.067 121.837 127.067 125.104 125.6C128.371 124.133 132.137 123.4 136.404 123.4C141.937 123.4 146.504 124.7 150.104 127.3C153.771 129.9 155.937 133.1 156.604 136.9L144.104 140.3C143.637 138.833 142.704 137.633 141.304 136.7C139.971 135.767 138.137 135.3 135.804 135.3C133.604 135.3 131.971 135.667 130.904 136.4C129.904 137.133 129.404 138 129.404 139C129.404 140.2 130.104 141.167 131.504 141.9C132.904 142.567 135.371 143.267 138.904 144C142.504 144.667 145.671 145.6 148.404 146.8C151.204 147.933 153.371 149.533 154.904 151.6C156.504 153.6 157.304 156.333 157.304 159.8C157.304 163.067 156.337 165.933 154.404 168.4C152.537 170.867 149.937 172.767 146.604 174.1C143.271 175.433 139.471 176.1 135.204 176.1ZM186.962 176.1C180.696 176.1 175.729 174.367 172.062 170.9C168.396 167.367 166.596 162.733 166.662 157L167.062 136.9L158.662 136.9L158.662 124.2L167.262 124.2L167.362 113.8L182.562 113.8L182.462 124.2L198.362 124.2L198.362 136.9L182.262 136.9L181.962 155.3C181.962 157.7 182.596 159.567 183.862 160.9C185.129 162.233 187.029 162.9 189.562 162.9C191.029 162.9 192.429 162.733 193.762 162.4C195.162 162 196.596 161.267 198.062 160.2L202.462 171.9C199.062 174.7 193.896 176.1 186.962 176.1Z" fill="#FFFFFF" fill-opacity="1.000000" fill-rule="evenodd"/>
</svg>
